<?xml version="1.0" standalone="no"?>
<!DOCTYPE svg PUBLIC "-//W3C//DTD SVG 20010904//EN"
 "http://www.w3.org/TR/2001/REC-SVG-20010904/DTD/svg10.dtd">
<svg version="1.0" xmlns="http://www.w3.org/2000/svg"
 width="512.000000pt" height="512.000000pt" viewBox="0 0 512.000000 512.000000"
 preserveAspectRatio="xMidYMid meet">

<g transform="translate(0.000000,512.000000) scale(0.100000,-0.100000)"
fill="#000000" stroke="none">
<path d="M2421 4629 c-178 -21 -375 -96 -528 -201 -105 -72 -236 -205 -305
-308 -140 -213 -198 -405 -198 -662 0 -313 107 -580 324 -806 102 -106 186
-169 306 -231 471 -241 1027 -147 1391 236 95 100 148 177 211 308 72 152 99
267 105 447 6 166 -6 271 -44 393 -142 451 -529 772 -998 825 -102 11 -158 11
-264 -1z m394 -174 c545 -138 882 -707 740 -1250 -45 -169 -144 -343 -266
-465 -465 -466 -1226 -388 -1589 162 -252 384 -216 885 90 1238 152 176 396
307 632 340 104 15 282 3 393 -25z"/>
<path d="M2485 4134 c-11 -2 -45 -9 -75 -15 -30 -6 -97 -31 -149 -56 -203 -97
-345 -299 -370 -525 -23 -203 43 -396 184 -543 74 -77 153 -128 259 -168 81
-31 82 -31 319 -35 l237 -4 0 70 0 69 -212 6 c-221 6 -260 12 -349 57 -124 62
-221 173 -267 303 -66 188 -8 419 139 552 107 97 217 139 359 139 190 0 346
-87 451 -252 53 -84 73 -170 74 -318 0 -153 -9 -174 -75 -174 -65 0 -74 20
-80 183 -5 131 -7 147 -34 201 -74 151 -241 237 -398 206 -125 -24 -220 -96
-274 -206 -26 -54 -29 -68 -29 -164 0 -96 3 -110 29 -163 61 -120 182 -199
318 -205 90 -5 153 13 229 64 l51 34 24 -29 c74 -89 231 -95 317 -13 63 59 72
92 71 257 -1 174 -14 239 -74 361 -71 145 -203 265 -360 326 -94 38 -239 57
-315 42z m142 -459 c158 -47 209 -245 94 -368 -42 -46 -93 -67 -161 -67 -115
0 -203 75 -224 193 -17 95 57 212 153 241 60 19 77 19 138 1z"/>
<path d="M710 2215 c-340 -70 -599 -319 -682 -653 -30 -119 -29 -303 1 -417
84 -318 325 -555 648 -638 84 -21 106 -22 503 -22 361 0 424 3 484 18 272 69
482 235 597 471 22 44 39 86 39 93 0 10 53 13 260 13 207 0 260 -3 260 -13 0
-7 17 -49 39 -93 115 -236 325 -402 597 -471 60 -15 123 -18 484 -18 397 0
419 1 503 22 322 83 564 320 648 638 30 114 31 298 1 417 -65 263 -238 473
-484 587 -158 73 -165 74 -622 79 -266 2 -433 -1 -480 -8 -291 -45 -553 -249
-667 -519 l-28 -66 -251 0 -251 0 -28 65 c-101 240 -309 423 -571 501 -72 22
-92 23 -505 25 -330 2 -445 0 -495 -11z m960 -154 c41 -12 111 -41 155 -64
107 -56 235 -182 288 -283 20 -40 37 -75 37 -78 0 -3 -63 -6 -139 -6 l-139 0
-59 58 c-65 65 -155 115 -238 132 -36 7 -178 10 -427 8 -353 -3 -376 -4 -430
-24 -290 -110 -402 -453 -232 -709 48 -74 103 -120 194 -164 l75 -36 398 -3
c346 -2 406 -1 455 13 85 25 130 52 198 116 l61 59 141 0 c78 0 142 -3 142 -7
0 -16 -73 -133 -113 -182 -66 -79 -141 -137 -242 -186 -148 -72 -188 -77 -656
-73 l-404 3 -88 31 c-122 44 -189 87 -282 179 -140 140 -204 284 -212 480 -6
142 12 231 71 350 92 184 238 313 426 374 108 36 169 40 565 37 360 -3 384 -4
455 -25z m2750 5 c199 -52 374 -192 469 -376 64 -124 76 -176 75 -335 0 -125
-3 -149 -27 -220 -37 -113 -90 -197 -177 -286 -85 -86 -178 -145 -295 -186
l-80 -28 -404 -3 c-468 -4 -508 1 -656 73 -143 69 -242 163 -320 301 -19 33
-35 64 -35 67 0 4 64 7 142 7 l141 0 61 -59 c68 -64 113 -91 198 -116 49 -14
109 -15 455 -13 l398 3 75 36 c156 76 242 191 270 362 38 235 -132 477 -368
526 -33 7 -187 11 -405 11 -384 0 -421 -4 -521 -58 -28 -15 -77 -53 -109 -84
l-59 -58 -140 0 c-160 0 -151 -9 -92 97 103 185 312 323 534 354 30 4 224 6
430 5 314 -3 386 -6 440 -20z m-2892 -386 c28 -5 68 -17 89 -26 l38 -16 -63
-18 c-118 -33 -193 -122 -200 -236 -7 -98 12 -149 77 -214 55 -54 106 -80 161
-80 37 0 7 -25 -54 -44 -46 -15 -99 -17 -417 -14 -358 3 -365 3 -416 27 -109
49 -193 177 -193 295 0 157 117 300 267 326 69 11 651 12 711 0z m2858 -30
c155 -79 222 -248 162 -407 -27 -73 -101 -153 -171 -184 -51 -24 -58 -24 -416
-27 -318 -3 -371 -1 -417 14 -61 19 -91 44 -54 44 87 0 205 94 229 182 44 157
-37 305 -191 348 l-63 18 39 17 c71 30 118 34 467 32 l346 -2 69 -35z m-895
-170 c46 -13 88 -58 95 -101 8 -48 -17 -104 -58 -129 -32 -20 -48 -20 -968
-20 -910 0 -936 1 -967 20 -93 56 -74 199 32 229 43 13 1821 13 1866 1z"/>
</g>
</svg>
