<?xml version="1.0" standalone="no"?>
<!DOCTYPE svg PUBLIC "-//W3C//DTD SVG 20010904//EN"
 "http://www.w3.org/TR/2001/REC-SVG-20010904/DTD/svg10.dtd">
<svg version="1.0" xmlns="http://www.w3.org/2000/svg"
 width="512.000000pt" height="512.000000pt" viewBox="0 0 512.000000 512.000000"
 preserveAspectRatio="xMidYMid meet">

<g transform="translate(0.000000,512.000000) scale(0.100000,-0.100000)"
fill="#000000" stroke="none">
<path d="M1 3848 c0 -1092 2 -1267 14 -1229 8 24 28 59 47 78 65 67 -91 63
2257 63 l2126 1 -368 362 c-258 254 -372 373 -382 399 -70 173 118 339 277
245 24 -14 285 -268 581 -564 470 -471 540 -545 552 -583 12 -39 14 127 14
1228 l1 1272 -2560 0 -2560 0 1 -1272z"/>
<path d="M1 1273 l-1 -1273 2560 0 2560 0 -1 1273 c0 1100 -2 1266 -14 1227
-12 -38 -82 -112 -552 -583 -296 -296 -557 -550 -581 -564 -159 -94 -347 72
-277 245 10 26 124 145 382 399 l368 363 -2126 0 c-2348 0 -2192 -4 -2257 63
-19 19 -39 54 -47 78 -12 38 -14 -137 -14 -1228z"/>
</g>
</svg>
